<?xml version="1.0" standalone="no"?>
<!DOCTYPE svg PUBLIC "-//W3C//DTD SVG 20010904//EN"
 "http://www.w3.org/TR/2001/REC-SVG-20010904/DTD/svg10.dtd">
<svg version="1.0" xmlns="http://www.w3.org/2000/svg"
 width="314.000000pt" height="314.000000pt" viewBox="0 0 314.000000 314.000000"
 preserveAspectRatio="xMidYMid meet">
<metadata>
Created by potrace 1.11, written by Peter Selinger 2001-2013
</metadata>
<g transform="translate(0.000000,314.000000) scale(0.100000,-0.100000)"
fill="#000000" stroke="none">
<path d="M1465 2868 c-12 -41 -13 -43 -14 -25 -1 26 -66 14 -177 -34 -50 -21
-96 -39 -102 -39 -9 0 -111 -66 -122 -79 -3 -4 -26 -24 -53 -45 -56 -45 -111
-119 -121 -161 -4 -16 -7 -31 -7 -32 0 -2 -6 -21 -14 -44 -8 -23 -15 -57 -15
-75 l0 -34 316 0 c207 0 313 -3 309 -10 -4 -6 -120 -10 -315 -10 l-308 0 1
-56 1 -56 62 5 c34 2 68 0 76 -4 9 -6 3 -9 -17 -9 l-30 -1 27 -14 c16 -9 25
-21 23 -32 -2 -10 -4 -26 -4 -35 -1 -11 -6 -15 -16 -12 -23 9 -18 -7 11 -37
21 -22 31 -26 48 -19 31 11 78 1 72 -16 -3 -8 1 -15 9 -15 44 -4 73 -3 70 1
-2 3 8 5 21 5 28 0 30 -7 9 -25 -9 -7 -14 -19 -11 -25 6 -15 -48 -47 -67 -39
-10 3 -20 -3 -28 -18 -16 -29 -35 -48 -48 -48 -6 0 -11 -12 -11 -27 l0 -26 24
22 c28 26 33 21 37 -34 3 -32 0 -40 -14 -43 -9 -2 -17 1 -17 7 0 6 5 11 11 11
5 0 7 5 4 10 -14 23 -37 -13 -31 -48 8 -51 -8 -75 -45 -67 -29 7 -29 6 -31
-42 -1 -26 -2 -56 -2 -65 0 -13 -6 -16 -29 -11 -23 5 -28 3 -22 -7 4 -7 2 -16
-6 -21 -12 -7 -11 -9 1 -9 11 0 16 -13 18 -43 3 -45 20 -113 21 -85 1 9 7 20
14 24 6 4 9 4 5 0 -6 -7 7 -55 29 -106 10 -24 10 -50 1 -56 -13 -8 -9 -58 6
-80 13 -18 24 -20 93 -18 43 1 85 -2 93 -7 12 -6 9 -9 -10 -10 -14 -1 -33 0
-44 1 -10 1 -23 -4 -27 -12 -7 -10 -9 -10 -9 0 0 6 -11 12 -25 12 -30 0 -33
-24 -9 -87 14 -35 21 -43 42 -43 24 0 24 1 9 18 -10 10 -17 32 -16 48 l1 29 8
-32 c4 -18 13 -40 20 -48 13 -16 65 -21 56 -6 -4 5 -2 20 3 33 9 21 10 21 10
-9 1 -32 21 -49 21 -18 0 8 5 15 10 15 6 0 10 9 10 20 0 11 5 20 10 20 6 0 10
-21 10 -46 l0 -46 -75 4 c-53 2 -75 0 -73 -8 3 -13 60 -82 123 -150 22 -24 73
-61 114 -81 40 -21 72 -42 71 -48 -1 -5 9 -12 22 -15 13 -3 27 -16 33 -28 5
-12 15 -20 21 -18 12 5 19 -21 29 -107 4 -33 3 -47 -5 -42 -5 3 -10 2 -10 -4
0 -6 10 -15 21 -22 16 -8 18 -13 9 -19 -10 -6 -9 -9 1 -16 8 -4 15 -2 17 5 3
9 8 6 16 -7 6 -11 17 -30 24 -42 11 -17 11 -21 1 -15 -9 6 -11 3 -6 -9 5 -11
3 -15 -5 -10 -7 5 -9 0 -6 -14 4 -12 2 -20 -2 -17 -12 8 -10 -55 2 -88 10 -25
15 -27 44 -22 33 5 39 0 35 -32 -1 -7 10 -20 25 -29 22 -15 27 -15 35 -3 5 8
9 9 9 3 0 -5 -9 -20 -21 -32 -13 -14 -19 -33 -17 -50 3 -25 6 -27 59 -30 l56
-3 -3 31 c-3 28 -2 30 16 20 10 -6 24 -18 29 -28 10 -16 10 -15 11 3 1 19 2
19 10 -1 9 -22 9 -22 454 -23 l446 -2 0 101 0 101 -72 33 c-40 18 -91 39 -113
46 -22 7 -104 44 -182 83 -103 50 -157 71 -194 75 -43 4 -50 2 -44 -9 15 -25
-24 11 -47 43 -26 37 -58 270 -61 448 -2 125 -2 125 34 200 31 65 89 241 89
271 0 6 9 18 19 27 21 19 35 78 21 87 -6 3 -10 11 -10 17 0 7 5 7 14 -1 11 -9
15 -8 20 5 4 10 3 20 -2 23 -12 8 -23 41 -14 41 5 0 13 -5 19 -11 23 -23 22
128 -2 184 -5 12 -3 17 5 15 7 -2 18 14 26 35 11 32 11 37 -2 37 -13 0 -12 4
1 30 9 17 20 30 26 30 8 0 7 5 -1 15 -7 8 -21 15 -31 15 -17 0 -19 9 -20 78
-1 161 -7 272 -19 324 -16 74 -51 168 -61 168 -5 0 -13 10 -18 23 -13 32 -103
128 -163 174 -99 74 -356 168 -433 158 -19 -2 -35 0 -35 5 0 15 -60 12 -65 -2z
m435 -197 c0 -5 -10 -13 -21 -16 -16 -5 -18 -9 -9 -15 10 -6 8 -11 -9 -21 -11
-8 -21 -19 -21 -26 0 -7 -7 -13 -16 -13 -8 0 -12 -5 -8 -11 3 -6 0 -15 -7 -20
-9 -6 -10 -9 -2 -9 14 0 33 19 69 66 15 19 33 34 41 34 8 0 11 -4 8 -10 -3 -6
1 -7 9 -4 10 4 16 1 16 -9 0 -8 14 -21 30 -29 17 -7 30 -19 30 -25 0 -7 6 -13
13 -13 19 0 36 -20 30 -36 -2 -7 -11 -10 -19 -7 -8 3 -14 -1 -14 -11 0 -13 5
-14 26 -6 30 12 40 8 47 -20 4 -15 -1 -22 -19 -26 -13 -3 -24 -10 -24 -15 0
-5 -5 -9 -11 -9 -5 0 -7 5 -4 10 7 11 -6 18 -45 23 -14 2 -23 8 -21 13 2 5 13
8 24 6 13 -3 17 0 12 8 -5 8 -23 11 -55 7 -47 -6 -47 -6 -45 24 1 16 -2 32 -7
35 -4 3 -6 10 -3 15 4 5 1 9 -6 9 -7 0 -9 -10 -6 -29 4 -17 0 -36 -9 -50 -15
-20 -10 -27 19 -22 4 0 7 -4 7 -10 0 -6 -7 -8 -16 -5 -13 5 -15 0 -10 -34 4
-31 2 -40 -9 -40 -8 0 -15 -4 -15 -10 0 -5 2 -10 4 -10 2 0 11 -3 20 -6 12 -5
16 0 16 20 0 21 5 26 24 26 14 0 28 -5 32 -11 5 -8 -1 -10 -20 -7 -24 5 -27 3
-24 -21 3 -23 0 -26 -32 -28 -19 -1 -41 -2 -48 -2 -8 -1 -12 -7 -10 -13 3 -8
19 -12 41 -10 37 4 51 -11 22 -22 -8 -3 -15 -15 -15 -26 0 -12 -9 -24 -24 -30
-13 -5 -27 -14 -31 -19 -8 -14 8 -14 21 -1 12 12 64 -3 64 -19 0 -5 2 -16 6
-24 3 -9 -6 -19 -25 -27 -17 -7 -36 -19 -43 -28 -11 -13 -10 -15 12 -8 14 4
34 8 45 10 11 2 28 7 38 11 22 9 22 1 0 -25 -18 -20 -39 -28 -28 -10 3 6 -1
10 -9 10 -9 0 -16 -9 -16 -20 0 -25 -27 -27 -33 -2 -3 10 -5 6 -6 -10 -1 -18
-7 -28 -16 -28 -8 0 -15 -5 -15 -10 0 -10 -48 -35 -62 -32 -5 1 -8 -2 -8 -8 0
-5 5 -10 10 -10 6 0 10 -7 10 -15 0 -10 -10 -15 -26 -15 -22 0 -24 3 -15 14 8
9 8 16 2 20 -5 4 -14 -2 -20 -11 -7 -14 -5 -21 12 -30 21 -12 21 -12 -5 -11
-20 2 -28 8 -28 20 0 10 -3 18 -7 18 -5 0 -7 27 -6 61 1 44 -3 62 -13 66 -17
6 -8 53 14 71 9 6 17 18 18 26 1 7 5 24 9 37 7 24 7 24 -10 4 -14 -17 -16 -17
-11 -2 11 36 -3 47 -64 47 -50 0 -58 -2 -55 -17 2 -10 4 -22 4 -26 1 -5 6 -5
11 -2 6 4 11 -11 12 -37 6 -155 6 -162 -16 -191 l-21 -28 -11 33 c-11 30 -9
35 14 56 14 12 19 22 12 22 -8 0 -10 9 -6 28 3 15 3 21 0 15 -10 -22 -24 -14
-24 12 0 14 7 28 15 31 10 4 12 10 7 18 -5 6 -12 32 -14 59 l-6 47 63 0 c41 0
64 4 67 13 4 11 2 92 -2 92 -1 0 -3 33 -5 73 -1 39 1 72 6 72 4 0 13 15 20 34
11 29 15 33 31 25 10 -5 18 -17 18 -26 0 -12 3 -13 14 -4 11 9 13 6 10 -16 -2
-16 -1 -21 2 -13 10 23 75 80 90 80 8 0 13 5 12 10 -2 8 26 30 50 39 1 1 2 -3
2 -8z m-738 -72 c2 -6 18 -12 35 -13 17 -2 44 -13 61 -24 16 -12 36 -22 44
-22 8 -1 7 -4 -5 -11 -9 -6 -26 -7 -37 -4 -13 4 -22 0 -29 -14 -12 -21 0 -37
19 -26 6 3 17 -1 26 -9 8 -9 13 -16 9 -16 -3 0 -1 -9 5 -20 6 -11 18 -20 26
-20 8 0 13 4 10 8 -2 4 -1 14 5 22 6 11 9 8 9 -14 l0 -29 -81 6 c-45 4 -91 13
-103 20 -12 8 -37 18 -56 21 -69 14 -75 17 -57 27 9 5 36 10 60 11 43 2 43 3
26 21 -10 11 -21 17 -26 14 -4 -2 -17 -1 -28 4 -17 6 -17 8 -2 8 10 1 17 9 17
21 0 13 7 20 20 20 11 0 23 7 26 15 7 18 21 20 26 4z m406 -31 c6 -13 12 -52
14 -88 l3 -65 -64 -3 c-48 -2 -74 2 -98 15 -37 20 -48 39 -27 47 8 3 14 2 14
-2 0 -15 68 -43 113 -46 45 -3 47 -2 40 18 -4 11 -6 36 -5 54 1 17 -3 32 -8
32 -6 0 -10 14 -10 30 0 36 12 39 28 8z m387 -128 c-3 -5 -10 -10 -16 -10 -5
0 -9 5 -9 10 0 6 7 10 16 10 8 0 12 -4 9 -10z m170 -26 c1 -15 -7 -24 -27 -32
-27 -10 -28 -9 -22 16 9 38 14 44 32 40 8 -2 16 -12 17 -24z m-126 -13 c-15
-5 -22 6 -14 19 6 9 10 9 16 -1 5 -8 4 -15 -2 -18z m17 -26 c9 -8 13 -15 9
-15 -3 0 1 -10 9 -21 14 -21 12 -49 -4 -49 -4 0 -11 11 -14 25 -7 28 -26 34
-26 9 0 -9 -5 -14 -12 -12 -21 7 -19 25 2 31 17 4 20 11 15 26 -8 25 1 27 21
6z m92 -22 c-10 -2 -18 -12 -18 -21 0 -15 -2 -15 -10 -2 -16 24 -12 30 18 29
16 -1 20 -3 10 -6z m12 -68 c0 -8 -4 -15 -10 -15 -5 0 -10 7 -10 15 0 8 5 15
10 15 6 0 10 -7 10 -15z m37 -17 c-3 -8 -6 -5 -6 6 -1 11 2 17 5 13 3 -3 4
-12 1 -19z m-237 -13 c-7 -9 -15 -13 -19 -10 -3 3 1 10 9 15 21 14 24 12 10
-5z m87 -49 c-9 -26 -27 -15 -27 16 1 31 1 32 15 13 9 -10 14 -24 12 -29z
m-1017 18 c0 -3 -7 -12 -16 -21 -12 -12 -18 -13 -27 -4 -9 9 -8 14 3 21 17 11
40 13 40 4z m970 -3 c0 -14 -18 -23 -30 -16 -6 4 -8 11 -5 16 8 12 35 12 35 0z
m92 -17 c-4 -23 -6 -24 -20 -11 -16 16 -9 37 12 37 9 0 12 -9 8 -26z m58 16
c0 -5 -4 -10 -10 -10 -5 0 -10 5 -10 10 0 6 5 10 10 10 6 0 10 -4 10 -10z m80
6 c0 -11 -19 -15 -25 -6 -3 5 1 10 9 10 9 0 16 -2 16 -4z m-853 -38 c-3 -7 -5
-2 -5 12 0 14 2 19 5 13 2 -7 2 -19 0 -25z m817 4 c3 -5 -1 -9 -9 -9 -8 0 -15
4 -15 9 0 4 4 8 9 8 6 0 12 -4 15 -8z m-854 -32 c0 -5 -5 -10 -11 -10 -5 0 -7
5 -4 10 3 6 8 10 11 10 2 0 4 -4 4 -10z m50 6 c0 -3 -4 -8 -10 -11 -5 -3 -10
-1 -10 4 0 6 5 11 10 11 6 0 10 -2 10 -4z m120 -30 c0 -42 -16 -55 -35 -30
-16 21 -19 38 -6 30 5 -3 11 3 14 14 8 33 27 23 27 -14z m616 7 c-10 -10 -19
5 -10 18 6 11 8 11 12 0 2 -7 1 -15 -2 -18z m-1036 -3 c0 -11 -28 -6 -41 7 -7
7 -3 9 15 6 14 -3 26 -9 26 -13z m157 4 c-3 -3 -12 -4 -19 -1 -8 3 -5 6 6 6
11 1 17 -2 13 -5z m781 -34 c-15 -24 -19 -21 -11 8 3 12 9 19 14 16 5 -3 3
-14 -3 -24z m-960 -8 c2 -7 -3 -12 -12 -12 -9 0 -16 7 -16 16 0 17 22 14 28
-4z m59 12 c-3 -3 -12 -4 -19 -1 -8 3 -5 6 6 6 11 1 17 -2 13 -5z m1041 -34
c-14 -22 -24 -19 -15 5 4 8 11 15 17 15 6 0 6 -7 -2 -20z m-674 -25 c-5 -11
-1 -14 12 -9 15 5 16 4 5 -4 -8 -6 -14 -24 -13 -42 0 -23 -3 -30 -13 -26 -8 3
-16 0 -19 -7 -2 -7 -4 -3 -2 8 1 11 8 30 14 43 9 16 10 22 1 22 -8 0 -8 4 1
15 16 19 21 19 14 0z m-439 -15 c3 -5 -1 -10 -9 -10 -9 0 -16 5 -16 10 0 6 4
10 9 10 6 0 13 -4 16 -10z m135 -44 c0 -2 -7 -7 -16 -10 -8 -3 -12 -2 -9 4 6
10 25 14 25 6z m459 -118 c7 2 4 -5 -8 -17 -33 -33 -24 -49 28 -42 7 2 10 -2
7 -7 -3 -6 5 -13 19 -16 24 -6 62 -62 51 -73 -3 -3 -10 6 -16 21 -9 24 -14 26
-55 24 l-45 -3 0 -40 c-2 -157 -19 -353 -32 -361 -7 -4 -6 -9 2 -14 8 -5 9
-18 2 -46 -6 -22 -7 -59 -3 -86 5 -30 4 -51 -3 -58 -31 -31 -61 14 -46 69 5
21 10 49 10 62 -1 100 17 389 27 454 5 28 6 71 3 98 -4 31 -1 59 8 80 l15 32
11 -41 c7 -27 16 -39 25 -36z m324 52 c-3 -11 -9 -20 -14 -20 -5 0 -9 9 -9 20
0 11 6 20 14 20 9 0 12 -7 9 -20z m-593 0 c0 -5 -2 -10 -4 -10 -3 0 -8 5 -11
10 -3 6 -1 10 4 10 6 0 11 -4 11 -10z m855 -74 c17 -17 24 -55 13 -63 -6 -3
-8 -1 -5 4 4 6 1 13 -7 16 -8 3 -16 16 -18 29 -2 17 -8 22 -25 20 -17 -2 -21
1 -17 12 5 13 10 13 27 4 12 -6 26 -16 32 -22z m-519 -118 c5 -8 0 -9 -14 -6
-12 4 -22 2 -22 -3 0 -5 5 -9 12 -9 6 0 8 -3 5 -7 -4 -3 -2 -12 4 -19 12 -15
4 -34 -14 -34 -7 0 -6 4 3 10 13 9 13 12 -2 21 -18 10 -24 40 -11 52 10 11 31
8 39 -5z m-266 -18 c-6 -11 -16 -20 -22 -20 -6 0 -3 9 7 20 10 11 20 20 22 20
2 0 -1 -9 -7 -20z m800 -41 c0 -6 -4 -7 -10 -4 -5 3 -10 11 -10 16 0 6 5 7 10
4 6 -3 10 -11 10 -16z m-790 -26 c0 -20 -3 -24 -11 -16 -7 7 -9 19 -6 27 10
24 17 19 17 -11z m620 17 c0 -5 -4 -10 -10 -10 -5 0 -10 5 -10 10 0 6 5 10 10
10 6 0 10 -4 10 -10z m-52 -23 c-23 -18 -6 -47 23 -40 21 6 39 -10 39 -36 0
-10 -3 -11 -14 -2 -11 9 -16 9 -21 0 -4 -6 -2 -15 4 -19 9 -5 7 -11 -5 -21
-12 -9 -15 -10 -10 -1 4 6 2 12 -3 12 -6 0 -11 6 -11 13 0 8 -13 26 -30 40
-31 28 -40 53 -16 44 8 -3 20 1 26 9 7 8 18 14 24 14 6 0 4 -6 -6 -13z m210
-18 c-3 -8 -7 -3 -11 10 -4 17 -3 21 5 13 5 -5 8 -16 6 -23z m-837 -13 c-11
-19 -17 -36 -14 -39 2 -3 0 -14 -6 -24 -8 -15 -10 -11 -11 24 0 32 5 45 22 57
30 21 30 21 9 -18z m318 -20 c10 -12 8 -13 -9 -9 -25 7 -37 23 -17 23 8 0 20
-6 26 -14z m-409 -20 c0 -3 -4 -8 -10 -11 -5 -3 -10 -1 -10 4 0 6 5 11 10 11
6 0 10 -2 10 -4z m-42 -42 c0 -17 -8 -28 -23 -34 -13 -5 -26 -15 -29 -22 -3
-7 -3 -2 0 12 4 14 11 27 15 28 15 6 10 22 -6 22 -8 0 -15 5 -15 11 0 6 9 9
20 6 11 -3 20 -1 20 5 0 5 4 7 9 4 5 -3 9 -17 9 -32z m436 -9 c3 -8 1 -15 -4
-15 -6 0 -10 7 -10 15 0 8 2 15 4 15 2 0 6 -7 10 -15z m-318 -87 c-1 -34 4
-66 10 -72 5 -6 13 -19 17 -29 5 -13 11 -16 24 -9 10 6 34 7 54 3 35 -6 35 -6
17 -25 -18 -19 -18 -19 -18 0 0 16 -2 17 -10 4 -5 -8 -10 -10 -10 -4 0 9 -12
9 -42 2 -23 -5 -44 -11 -47 -14 -9 -8 33 -32 48 -26 8 3 29 6 45 6 30 0 31 -2
34 -47 2 -34 -1 -47 -10 -47 -7 0 -14 -11 -14 -25 -1 -14 2 -25 6 -25 12 0 19
-52 13 -98 -3 -23 -10 -42 -15 -42 -5 0 -6 5 -3 10 4 6 4 19 0 28 -6 16 -7 16
-16 0 -6 -10 -18 -18 -27 -18 -16 -1 -16 -2 1 -14 9 -7 17 -19 17 -26 0 -10 3
-10 14 -1 8 7 17 8 20 3 10 -16 -1 -92 -16 -109 -7 -9 -11 -26 -10 -37 3 -16
1 -18 -8 -9 -10 9 -9 22 4 59 20 59 20 74 1 74 -8 0 -15 -4 -15 -10 0 -5 -6
-10 -14 -10 -22 0 -29 62 -11 96 23 45 18 59 -10 26 -14 -17 -25 -37 -25 -47
0 -22 -18 -55 -30 -55 -10 0 -5 104 5 120 3 5 -3 14 -14 20 -16 8 -24 6 -41
-12 l-20 -22 0 22 c0 12 -5 22 -12 22 -6 0 -4 6 5 13 12 8 16 22 14 43 -3 19
3 40 13 53 14 20 19 21 43 10 15 -7 27 -16 27 -21 0 -16 25 -35 39 -30 9 3 11
-2 7 -16 -6 -17 -3 -19 13 -15 11 3 24 15 27 27 11 30 12 96 2 96 -8 0 -9 -2
-13 -38 -3 -33 -12 -38 -34 -18 -10 9 -25 16 -32 14 -10 -2 -15 10 -17 40 -2
29 -8 42 -18 42 -11 0 -12 5 -6 18 14 27 23 82 13 82 -5 0 -5 15 -1 33 8 33
20 67 25 67 1 0 1 -28 1 -62z m334 37 c-7 -9 -15 -13 -17 -11 -7 7 7 26 19 26
6 0 6 -6 -2 -15z m310 -5 c0 -5 -7 -10 -16 -10 -8 0 -12 5 -9 10 3 6 10 10 16
10 5 0 9 -4 9 -10z m-590 -47 c0 -20 -3 -24 -11 -16 -7 7 -9 19 -6 27 10 24
17 19 17 -11z m-425 -13 c3 -5 1 -10 -4 -10 -6 0 -11 5 -11 10 0 6 2 10 4 10
3 0 8 -4 11 -10z m1025 1 c0 -5 -9 -7 -20 -4 -11 3 -20 7 -20 9 0 2 9 4 20 4
11 0 20 -4 20 -9z m-3 -33 c16 -18 20 -34 18 -78 -1 -30 -3 -57 -5 -60 -1 -3
-2 -9 -1 -14 1 -4 -5 -19 -14 -32 -8 -13 -15 -29 -15 -35 0 -19 -31 -49 -52
-49 -19 0 -25 15 -9 24 5 3 12 22 15 41 4 19 11 35 17 35 5 0 9 6 7 13 -1 6 4
23 11 36 15 27 9 105 -10 127 -20 25 16 16 38 -8z m-877 -64 c0 -25 -4 -43 -9
-40 -4 3 -7 16 -6 28 1 13 3 31 4 41 2 36 11 15 11 -29z m17 -60 c-3 -3 -12
-4 -19 -1 -8 3 -5 6 6 6 11 1 17 -2 13 -5z m529 -49 c7 -27 -9 -55 -32 -55
-20 0 -25 15 -13 49 13 37 36 40 45 6z m33 -17 c-12 -23 -18 -23 -14 0 2 9 4
24 4 32 1 13 3 13 10 1 6 -9 6 -22 0 -33z m-157 -85 c0 -16 0 -35 -1 -43 -1
-8 -2 -23 -2 -32 0 -10 -4 -18 -10 -18 -5 0 -9 27 -9 60 0 59 18 87 22 33z
m34 -90 c-4 -56 -8 -69 -23 -71 -15 -3 -16 -1 -5 9 7 7 12 38 12 71 0 32 4 58
10 58 6 0 8 -27 6 -67z m84 -17 c0 -3 -4 -8 -10 -11 -5 -3 -10 -1 -10 4 0 6 5
11 10 11 6 0 10 -2 10 -4z m5 -36 c3 -5 -3 -10 -14 -10 -12 0 -21 5 -21 10 0
6 6 10 14 10 8 0 18 -4 21 -10z m-485 -41 c0 -6 -4 -7 -10 -4 -5 3 -10 11 -10
16 0 6 5 7 10 4 6 -3 10 -11 10 -16z m390 -11 c0 -13 -5 -30 -10 -38 -7 -11
-10 -5 -10 23 0 20 5 37 10 37 6 0 10 -10 10 -22z m-260 -34 c0 -8 -4 -14 -10
-14 -5 0 -10 9 -10 21 0 11 5 17 10 14 6 -3 10 -13 10 -21z m-20 -50 c5 -1 29
-2 53 -4 41 -2 41 -2 14 -12 -43 -15 -92 -3 -94 24 -2 18 0 19 7 8 5 -8 14
-16 20 -16z m278 -6 c-1 -18 2 -46 5 -63 4 -16 5 -25 2 -19 -3 7 -15 9 -27 6
-19 -4 -20 -2 -14 19 5 13 10 39 13 57 3 17 9 32 14 32 5 0 8 -15 7 -32z
m-148 -48 c0 -11 -4 -20 -10 -20 -5 0 -10 9 -10 20 0 11 5 20 10 20 6 0 10 -9
10 -20z m207 -506 c-3 -3 -12 -4 -19 -1 -8 3 -5 6 6 6 11 1 17 -2 13 -5z m-12
-34 c-3 -5 -1 -10 6 -10 8 0 8 -4 -2 -16 -12 -14 -14 -14 -20 3 -11 28 -10 33
7 33 8 0 12 -4 9 -10z m171 -122 c4 -7 4 -10 -1 -6 -4 4 -14 3 -22 -4 -11 -8
-12 -7 -7 6 7 19 20 21 30 4z m151 -84 c-3 -3 -12 -4 -19 -1 -8 3 -5 6 6 6 11
1 17 -2 13 -5z"/>
<path d="M1890 2594 c0 -8 5 -12 10 -9 6 3 10 10 10 16 0 5 -4 9 -10 9 -5 0
-10 -7 -10 -16z"/>
<path d="M1915 2560 c-3 -5 1 -10 9 -10 8 0 18 5 21 10 3 6 -1 10 -9 10 -8 0
-18 -4 -21 -10z"/>
<path d="M1945 2520 c-3 -5 1 -10 9 -10 9 0 16 5 16 10 0 6 -4 10 -9 10 -6 0
-13 -4 -16 -10z"/>
<path d="M1110 2560 c0 -5 5 -10 10 -10 6 0 10 5 10 10 0 6 -4 10 -10 10 -5 0
-10 -4 -10 -10z"/>
<path d="M1150 2520 c0 -5 6 -10 14 -10 8 0 18 5 21 10 3 6 -3 10 -14 10 -12
0 -21 -4 -21 -10z"/>
<path d="M1590 1803 c0 -5 9 -14 20 -21 11 -7 20 -8 20 -2 0 5 -9 14 -20 20
-11 6 -20 7 -20 3z"/>
<path d="M1555 1620 c3 -5 8 -10 11 -10 2 0 4 5 4 10 0 6 -5 10 -11 10 -5 0
-7 -4 -4 -10z"/>
<path d="M1436 1081 c-4 -7 -5 -15 -2 -18 9 -9 19 4 14 18 -4 11 -6 11 -12 0z"/>
<path d="M890 2150 c-34 -5 -35 -6 -33 -45 1 -22 6 -41 11 -43 11 -3 4 -47
-14 -81 -12 -23 -12 -28 3 -39 10 -7 24 -10 31 -7 8 3 20 5 28 5 9 0 13 4 9 9
-3 5 0 13 6 17 7 4 9 23 5 54 -4 26 -2 59 4 74 5 15 6 26 0 26 -5 0 -10 8 -12
18 -2 13 -10 16 -38 12z"/>
<path d="M795 1910 c3 -5 8 -10 11 -10 2 0 4 5 4 10 0 6 -5 10 -11 10 -5 0 -7
-4 -4 -10z"/>
<path d="M881 1891 c-7 -5 -11 -14 -7 -20 10 -16 -12 -88 -29 -95 -9 -3 -15
-18 -15 -37 0 -25 11 -42 49 -80 27 -26 47 -50 45 -52 -3 -3 2 -7 11 -10 9 -4
15 -1 15 9 0 9 -8 18 -18 20 -21 6 -55 84 -46 107 8 23 23 12 17 -12 -6 -25
13 -61 34 -61 13 0 13 2 2 16 -11 14 -10 18 6 31 18 13 19 15 3 24 -14 8 -35
62 -30 81 1 4 4 25 7 47 4 34 2 41 -13 41 -9 0 -23 -4 -31 -9z"/>
<path d="M807 1878 c-2 -7 -1 -22 3 -33 6 -16 9 -17 13 -5 12 34 -3 70 -16 38z"/>
<path d="M995 1761 c-3 -5 -1 -12 4 -15 5 -3 11 1 15 9 6 16 -9 21 -19 6z"/>
<path d="M988 1678 c-10 -6 -10 -10 2 -18 21 -13 36 -12 49 4 9 11 6 15 -13
18 -14 3 -31 1 -38 -4z"/>
<path d="M800 496 c-30 -7 -82 -26 -115 -43 -33 -17 -117 -54 -187 -84 l-128
-54 0 -157 0 -158 381 0 381 0 -49 36 c-125 94 -191 185 -217 297 -22 94 -20
116 11 149 l27 28 -25 -1 c-13 -1 -49 -7 -79 -13z"/>
<path d="M1625 160 c-3 -5 1 -10 10 -10 9 0 13 5 10 10 -3 6 -8 10 -10 10 -2
0 -7 -4 -10 -10z"/>
<path d="M1240 110 c0 -5 5 -10 10 -10 6 0 10 5 10 10 0 6 -4 10 -10 10 -5 0
-10 -4 -10 -10z"/>
</g>
</svg>
